<?xml version="1.0" encoding="utf-8"?>
<!-- Generator: Adobe Illustrator 18.1.1, SVG Export Plug-In . SVG Version: 6.00 Build 0)  -->
<svg version="1.1" id="_x35_a" xmlns="http://www.w3.org/2000/svg" xmlns:xlink="http://www.w3.org/1999/xlink" x="0px" y="0px"
	 width="372.9px" height="18.5px" viewBox="0 0 372.9 18.5" enable-background="new 0 0 372.9 18.5" xml:space="preserve">
<g>
	<g>
		<path fill="#FFFFFF" d="M0,18.5L9.6,4.1L7,0.3h20c1.8,0,3.1,0.8,3.5,1.6c0.9-0.8,2.1-1.6,4.6-1.6h13c4.9,0,5.2,2.3,4.1,3.8
			l-9.6,14.4h-8l8.4-12.7c0.7-1.1,0.1-1.7-1.3-1.7H35l-9.6,14.4h-8l8.5-12.7c0.7-1,0-1.7-1.3-1.7h-7L8,18.5H0z"/>
		<path fill="#FFFFFF" d="M54.3,18.5c-2.4,0-4.9-1.3-2.9-4.3l6.7-10.1c2.5-3.8,5.1-3.8,6.7-3.8h14.6c5,0,5.4,2,4.2,3.8l-6.7,10.1
			c-2.8,4.3-5.7,4.3-7.6,4.3H54.3z M66,14.2c2.1,0,3.2-0.4,4.1-1.8l4.4-6.6c0.7-1.1,0-1.7-1.3-1.7h-4.6c-1.8,0-2.8,0.4-3.6,1.7
			l-4.4,6.7c-0.7,1.1-0.3,1.7,1.2,1.7H66z"/>
		<path fill="#FFFFFF" d="M80.1,18.5l7.4-11.1h13c1.3,0,2.2-0.3,2.7-1l0.7-1c0.6-0.8-0.2-1.2-1.5-1.2H89.6L87,0.3h21.5
			c5,0,5.4,2,4.2,3.8l-2.2,3.4c-1.1,1.7-4,2.1-6.2,2.2c2.1,0.3,2.9,1.3,2.5,2.6l-1.5,6.2h-8l1.9-5.7c0.3-0.9-0.1-1.7-1.4-1.7H93
			l-4.9,7.3H80.1z"/>
		<path fill="#FFFFFF" d="M109.2,18.5l12.2-18.2h8l-12.2,18.2H109.2z"/>
		<path fill="#FFFFFF" d="M123.4,18.5l12.2-18.2h8l-9.3,13.9h12.1l-2.9,4.3H123.4z"/>
		<path fill="#FFFFFF" d="M147.4,18.5l12.2-18.2h8l-9.3,13.9h12.1l-2.9,4.3H147.4z"/>
		<path fill="#FFFFFF" d="M171.4,18.5l12.2-18.2h8l-12.2,18.2H171.4z"/>
		<path fill="#FFFFFF" d="M201.1,18.5l5.1-7.6h-5.3c-1.9,0-2.7,0.3-3.6,1.5l-4.7,6.1h-8.5l7.1-8.6c1.4-1.7,3.2-2.8,7.3-2.8h10.2
			l0.8-1.3c0.9-1.4-0.1-1.7-1.2-1.7h-11.2l-1.8-3.8h19.2c4.9,0,5,2.5,3.8,4.4l-9.2,13.8H201.1z"/>
		<path fill="#FFFFFF" d="M214.9,18.5l9.6-14.4l-2.5-3.8h23.9c4.9,0,5.1,2.3,4.1,3.8l-9.6,14.4h-8.1l8.5-12.7
			c0.8-1.1,0.1-1.7-1.2-1.7h-7.1l-9.6,14.4H214.9z"/>
	</g>
	<path fill="#FFFFFF" d="M254.8,6.1c-0.8,0-1.6-0.4-0.9-1.4l2.2-3.3c0.8-1.2,1.7-1.2,2.2-1.2h5.2c1.5,0,1.6,0.6,1.2,1.2l-2.2,3.3
		c-0.9,1.4-1.9,1.4-2.4,1.4H254.8z M259.9,5.4c0.7,0,1.2-0.3,1.4-0.6l2.5-3.7h-5.6c-0.4,0-1,0.1-1.3,0.6l-2.5,3.8H259.9z"/>
	<path fill="#FFFFFF" d="M257.3,4.2l1-1.4h1.5c0.1,0,0.3,0,0.3-0.1l0.1-0.1c0.1-0.1,0-0.1-0.2-0.1h-1.5L258.2,2h2.6
		c0.6,0,0.6,0.2,0.5,0.5L261,2.9c-0.2,0.2-0.5,0.2-0.8,0.3c0.2,0,0.3,0.2,0.3,0.3l-0.2,0.7h-1l0.3-0.7c0-0.1,0-0.2-0.2-0.2h-0.6
		l-0.7,0.9H257.3z"/>
	<g>
		<linearGradient id="SVGID_1_" gradientUnits="userSpaceOnUse" x1="280.7069" y1="9.2167" x2="376.2069" y2="8.7167">
			<stop  offset="0.2382" style="stop-color:#E94E1B"/>
			<stop  offset="1" style="stop-color:#9E151A"/>
		</linearGradient>
		<path fill="url(#SVGID_1_)" d="M263.3,18.5L273,3.9L270.5,0h23.7c5,0,5.5,2,4.2,3.9L296,7.5c-0.7,1-3.1,2-4.5,2.1
			c1.3,0.3,2.9,1.5,2,2.9l-1.1,1.7c-2.8,4.4-6.1,4.3-8,4.3H263.3z M282.2,14.1c1.3,0,2.2-0.4,2.6-1l0.7-1c0.5-0.7,0.1-1.4-1.3-1.4
			h-7.6l-2.3,3.4H282.2z M279.2,6.9h7.5c1.3,0,2.2-0.3,2.7-1l0.4-0.6c0.6-0.8-0.1-1.4-1.5-1.4h-7.1L279.2,6.9z"/>
		<linearGradient id="SVGID_2_" gradientUnits="userSpaceOnUse" x1="280.7079" y1="9.4056" x2="376.2079" y2="8.9056">
			<stop  offset="0.2382" style="stop-color:#E94E1B"/>
			<stop  offset="1" style="stop-color:#9E151A"/>
		</linearGradient>
		<path fill="url(#SVGID_2_)" d="M320.6,14.1h3.3c1.5,0,3.4-0.7,4.5-1.9L339.5,0h8.6l-11.8,13c-3.1,3.4-6.9,5.4-11.3,5.4h-7.1
			c-2,0-2.8-1-3-2c-0.9,0.9-2.4,2-4.9,2h-15.1l10-14.6L302.2,0h13l-9.7,14.1h4.3c1.9,0,3.4-0.8,4.2-1.8L323.2,0h7.5L320.6,14.1z"/>
		<linearGradient id="SVGID_3_" gradientUnits="userSpaceOnUse" x1="280.709" y1="9.63" x2="376.209" y2="9.13">
			<stop  offset="0.2382" style="stop-color:#E94E1B"/>
			<stop  offset="1" style="stop-color:#9E151A"/>
		</linearGradient>
		<path fill="url(#SVGID_3_)" d="M342.5,14.1h14.1c2.2,0,2-1.2,1.1-1.8l-4.4-2.9c-3.7-2.4-5.7-3.9-4.8-6.3c0.9-2.6,3.8-3.1,7.4-3.1
			h16.9l-2.6,3.9h-11.1c-1.3,0-1.6,1-0.8,1.5l4.2,2.8c2.9,1.8,4.3,3.6,3.6,6c-0.7,2.6-3,4.3-9.3,4.3h-17.3L342.5,14.1z"/>
	</g>
</g>
</svg>
